HIERARCHY
ROOT Hips
{
	OFFSET	0.00	0.00	0.00
	CHANNELS 6 Xposition Yposition Zposition Zrotation Xrotation Yrotation
	JOINT Spine
	{
		OFFSET	 0.000000	 0.053172	 0.012782
		CHANNELS 3 Zrotation Xrotation Yrotation
		JOINT Chest
		{
			OFFSET	 0.000000	 0.115403	 0.003114
			CHANNELS 3 Zrotation Xrotation Yrotation
			JOINT UpperChest
			{
				OFFSET	 0.000000	 0.109921	-0.014956
				CHANNELS 3 Zrotation Xrotation Yrotation
				JOINT Neck
				{
					OFFSET	 0.000000	 0.135086	-0.039168
					CHANNELS 3 Zrotation Xrotation Yrotation
					JOINT Head
					{
						OFFSET	 0.000000	 0.074065	 0.009278
						CHANNELS 3 Zrotation Xrotation Yrotation
						JOINT LeftEye
						{
							OFFSET	 0.013099	 0.061527	 0.024023
							CHANNELS 3 Zrotation Xrotation Yrotation
							End Site
							{
								OFFSET	 0.013099	 0.061527	 0.024023
							}
						}
						JOINT RightEye
						{
							OFFSET	-0.013099	 0.061527	 0.024023
							CHANNELS 3 Zrotation Xrotation Yrotation
							End Site
							{
								OFFSET	-0.013099	 0.061527	 0.024023
							}
						}
					}
				}
				JOINT LeftShoulder
				{
					OFFSET	 0.022837	 0.107922	-0.030603
					CHANNELS 3 Zrotation Xrotation Yrotation
					JOINT LeftUpperArm
					{
						OFFSET	 0.086642	-0.012346	-0.000000
						CHANNELS 3 Zrotation Xrotation Yrotation
						JOINT LeftLowerArm
						{
							OFFSET	 0.224390	 0.000000	 0.000000
							CHANNELS 3 Zrotation Xrotation Yrotation
							JOINT LeftHand
							{
								OFFSET	 0.217424	 0.000002	 0.000381
								CHANNELS 3 Zrotation Xrotation Yrotation
								JOINT LeftIndexProximal
								{
									OFFSET	 0.066067	 0.007457	 0.019860
									CHANNELS 3 Zrotation Xrotation Yrotation
									JOINT LeftIndexIntermediate
									{
										OFFSET	 0.033559	-0.000000	-0.000653
										CHANNELS 3 Zrotation Xrotation Yrotation
										JOINT LeftIndexDistal
										{
											OFFSET	 0.020642	-0.000597	-0.000797
											CHANNELS 3 Zrotation Xrotation Yrotation
											End Site
											{
												OFFSET	 0.020642	-0.000597	-0.000797
											}
										}
									}
								}
								JOINT LeftLittleProximal
								{
									OFFSET	 0.061646	 0.007457	-0.029477
									CHANNELS 3 Zrotation Xrotation Yrotation
									JOINT LeftLittleIntermediate
									{
										OFFSET	 0.031724	 0.000000	 0.000000
										CHANNELS 3 Zrotation Xrotation Yrotation
										JOINT LeftLittleDistal
										{
											OFFSET	 0.018284	 0.000000	 0.000000
											CHANNELS 3 Zrotation Xrotation Yrotation
											End Site
											{
												OFFSET	 0.018284	 0.000000	 0.000000
											}
										}
									}
								}
								JOINT LeftMiddleProximal
								{
									OFFSET	 0.066967	 0.007457	 0.002068
									CHANNELS 3 Zrotation Xrotation Yrotation
									JOINT LeftMiddleIntermediate
									{
										OFFSET	 0.037388	 0.000000	 0.000000
										CHANNELS 3 Zrotation Xrotation Yrotation
										JOINT LeftMiddleDistal
										{
											OFFSET	 0.023065	 0.000000	-0.000000
											CHANNELS 3 Zrotation Xrotation Yrotation
											End Site
											{
												OFFSET	 0.023065	 0.000000	-0.000000
											}
										}
									}
								}
								JOINT LeftRingProximal
								{
									OFFSET	 0.066205	 0.007457	-0.013729
									CHANNELS 3 Zrotation Xrotation Yrotation
									JOINT LeftRingIntermediate
									{
										OFFSET	 0.034682	 0.000000	 0.000000
										CHANNELS 3 Zrotation Xrotation Yrotation
										JOINT LeftRingDistal
										{
											OFFSET	 0.020015	 0.000000	-0.000000
											CHANNELS 3 Zrotation Xrotation Yrotation
											End Site
											{
												OFFSET	 0.020015	 0.000000	-0.000000
											}
										}
									}
								}
								JOINT LeftThumbProximal
								{
									OFFSET	 0.003555	-0.010112	 0.016128
									CHANNELS 3 Zrotation Xrotation Yrotation
									JOINT LeftThumbIntermediate
									{
										OFFSET	 0.035690	-0.002084	 0.030576
										CHANNELS 3 Zrotation Xrotation Yrotation
										JOINT LeftThumbDistal
										{
											OFFSET	 0.022765	-0.000980	 0.017832
											CHANNELS 3 Zrotation Xrotation Yrotation
											End Site
											{
												OFFSET	 0.022765	-0.000980	 0.017832
											}
										}
									}
								}
							}
						}
					}
				}
				JOINT RightShoulder
				{
					OFFSET	-0.022837	 0.107922	-0.030603
					CHANNELS 3 Zrotation Xrotation Yrotation
					JOINT RightUpperArm
					{
						OFFSET	-0.086642	-0.012346	-0.000000
						CHANNELS 3 Zrotation Xrotation Yrotation
						JOINT RightLowerArm
						{
							OFFSET	-0.224390	 0.000000	 0.000000
							CHANNELS 3 Zrotation Xrotation Yrotation
							JOINT RightHand
							{
								OFFSET	-0.217424	 0.000002	 0.000381
								CHANNELS 3 Zrotation Xrotation Yrotation
								JOINT RightIndexProximal
								{
									OFFSET	-0.066067	 0.007457	 0.019860
									CHANNELS 3 Zrotation Xrotation Yrotation
									JOINT RightIndexIntermediate
									{
										OFFSET	-0.033559	-0.000000	-0.000653
										CHANNELS 3 Zrotation Xrotation Yrotation
										JOINT RightIndexDistal
										{
											OFFSET	-0.020642	-0.000597	-0.000797
											CHANNELS 3 Zrotation Xrotation Yrotation
											End Site
											{
												OFFSET	-0.020642	-0.000597	-0.000797
											}
										}
									}
								}
								JOINT RightLittleProximal
								{
									OFFSET	-0.061646	 0.007457	-0.029477
									CHANNELS 3 Zrotation Xrotation Yrotation
									JOINT RightLittleIntermediate
									{
										OFFSET	-0.031724	 0.000000	 0.000000
										CHANNELS 3 Zrotation Xrotation Yrotation
										JOINT RightLittleDistal
										{
											OFFSET	-0.018284	 0.000000	 0.000000
											CHANNELS 3 Zrotation Xrotation Yrotation
											End Site
											{
												OFFSET	-0.018284	 0.000000	 0.000000
											}
										}
									}
								}
								JOINT RightMiddleProximal
								{
									OFFSET	-0.066967	 0.007457	 0.002068
									CHANNELS 3 Zrotation Xrotation Yrotation
									JOINT RightMiddleIntermediate
									{
										OFFSET	-0.037388	 0.000000	 0.000000
										CHANNELS 3 Zrotation Xrotation Yrotation
										JOINT RightMiddleDistal
										{
											OFFSET	-0.023065	 0.000000	-0.000000
											CHANNELS 3 Zrotation Xrotation Yrotation
											End Site
											{
												OFFSET	-0.023065	 0.000000	-0.000000
											}
										}
									}
								}
								JOINT RightRingProximal
								{
									OFFSET	-0.066205	 0.007457	-0.013729
									CHANNELS 3 Zrotation Xrotation Yrotation
									JOINT RightRingIntermediate
									{
										OFFSET	-0.034682	 0.000000	 0.000000
										CHANNELS 3 Zrotation Xrotation Yrotation
										JOINT RightRingDistal
										{
											OFFSET	-0.020015	 0.000000	-0.000000
											CHANNELS 3 Zrotation Xrotation Yrotation
											End Site
											{
												OFFSET	-0.020015	 0.000000	-0.000000
											}
										}
									}
								}
								JOINT RightThumbProximal
								{
									OFFSET	-0.003555	-0.010112	 0.016128
									CHANNELS 3 Zrotation Xrotation Yrotation
									JOINT RightThumbIntermediate
									{
										OFFSET	-0.035690	-0.002084	 0.030576
										CHANNELS 3 Zrotation Xrotation Yrotation
										JOINT RightThumbDistal
										{
											OFFSET	-0.022765	-0.000980	 0.017832
											CHANNELS 3 Zrotation Xrotation Yrotation
											End Site
											{
												OFFSET	-0.022765	-0.000980	 0.017832
											}
										}
									}
								}
							}
						}
					}
				}
			}
		}
	}
	JOINT LeftUpperLeg
	{
		OFFSET	 0.078678	-0.040616	-0.003734
		CHANNELS 3 Zrotation Xrotation Yrotation
		JOINT LeftLowerLeg
		{
			OFFSET	-0.000000	-0.358659	-0.007506
			CHANNELS 3 Zrotation Xrotation Yrotation
			JOINT LeftFoot
			{
				OFFSET	 0.000000	-0.418700	-0.025144
				CHANNELS 3 Zrotation Xrotation Yrotation
				JOINT LeftToes
				{
					OFFSET	 0.000000	-0.063430	 0.111347
					CHANNELS 3 Zrotation Xrotation Yrotation
					End Site
					{
						OFFSET	 0.000000	-0.063430	 0.111347
					}
				}
			}
		}
	}
	JOINT RightUpperLeg
	{
		OFFSET	-0.078678	-0.040616	-0.003734
		CHANNELS 3 Zrotation Xrotation Yrotation
		JOINT RightLowerLeg
		{
			OFFSET	 0.000000	-0.358659	-0.007506
			CHANNELS 3 Zrotation Xrotation Yrotation
			JOINT RightFoot
			{
				OFFSET	 0.000000	-0.418700	-0.025144
				CHANNELS 3 Zrotation Xrotation Yrotation
				JOINT RightToes
				{
					OFFSET	 0.000000	-0.063430	 0.111347
					CHANNELS 3 Zrotation Xrotation Yrotation
					End Site
					{
						OFFSET	 0.000000	-0.063430	 0.111347
					}
				}
			}
		}
	}
}
MOTION
Frames:    4
Frame Time: 0.03333334
-0.003263	 0.911186	 0.007916	-0.904714	 4.305700	-0.979217	 0.492032	-4.475953	 0.793141	 0.357509	 5.857163	-0.006854	 0.000000	 0.000000	 0.000000	-0.356029	-14.456290	-0.029488	-3.142082	 4.271039	-7.461848	 0.000000	 0.000000	 0.000000	 0.000000	 0.000000	 0.000000	 9.354758	-13.474620	 4.366704	-12.287500	 1.335118	-43.992800	-35.052510	-59.389510	-112.383600	 6.009794	 22.914260	-8.464303	 0.000000	 0.000000	 0.000000	 0.000000	 0.000000	 0.000000	 0.000000	 0.000000	 0.000000	 0.000000	 0.000000	 0.000000	 0.000000	 0.000000	 0.000000	 0.000000	 0.000000	 0.000000	 0.000000	 0.000000	 0.000000	 0.000000	 0.000000	 0.000000	 0.000000	 0.000000	 0.000000	 0.000000	 0.000000	 0.000000	 0.000000	 0.000000	 0.000000	 0.000000	 0.000000	 0.000000	 0.000000	 0.000000	 0.000000	 0.000000	 0.000000	 0.000000	 0.000000	 0.000000	 0.000000	-7.790481	-13.520790	-4.051593	 8.205590	 2.564285	 34.598800	 44.387340	-65.462260	 118.264500	-2.891592	 14.868860	 15.981000	 0.000000	 0.000000	 0.000000	 0.000000	 0.000000	 0.000000	 0.000000	 0.000000	 0.000000	 0.000000	 0.000000	 0.000000	 0.000000	 0.000000	 0.000000	 0.000000	 0.000000	 0.000000	 0.000000	 0.000000	 0.000000	 0.000000	 0.000000	 0.000000	 0.000000	 0.000000	 0.000000	 0.000000	 0.000000	 0.000000	 0.000000	 0.000000	 0.000000	 0.000000	 0.000000	 0.000000	 0.000000	 0.000000	 0.000000	 0.000000	 0.000000	 0.000000	 0.000000	 0.000000	 0.000000	 4.705630	-17.582220	 1.330302	 0.389002	 39.104420	-0.633031	 2.019941	-12.995940	 7.093193	 0.000000	 0.000000	 0.000000	 0.418050	-20.713760	 0.139684	 1.408604	 38.767490	-2.309004	-1.430317	-10.179840	-6.042901	 0.000000	 0.000000	 0.000000
-0.002844	 0.911248	 0.008656	-0.969503	 4.315348	-1.023212	 0.518927	-4.501472	 0.209687	 0.481372	 5.835476	 0.000425	 0.000000	 0.000000	 0.000000	-0.422135	-14.299620	-0.040294	-3.243199	 4.067204	-7.481522	 0.000000	 0.000000	 0.000000	 0.000000	 0.000000	 0.000000	 9.434358	-13.468030	 4.674038	-11.984540	 1.270304	-43.278880	-34.677870	-58.834790	-112.627200	 5.312958	 24.852230	-9.503428	 0.000000	 0.000000	 0.000000	 0.000000	 0.000000	 0.000000	 0.000000	 0.000000	 0.000000	 0.000000	 0.000000	 0.000000	 0.000000	 0.000000	 0.000000	 0.000000	 0.000000	 0.000000	 0.000000	 0.000000	 0.000000	 0.000000	 0.000000	 0.000000	 0.000000	 0.000000	 0.000000	 0.000000	 0.000000	 0.000000	 0.000000	 0.000000	 0.000000	 0.000000	 0.000000	 0.000000	 0.000000	 0.000000	 0.000000	 0.000000	 0.000000	 0.000000	 0.000000	 0.000000	 0.000000	-7.780598	-13.516540	-4.344367	 8.001042	 2.604125	 34.505000	 43.286540	-63.829070	 119.038700	-1.684274	 15.140420	 17.725770	 0.000000	 0.000000	 0.000000	 0.000000	 0.000000	 0.000000	 0.000000	 0.000000	 0.000000	 0.000000	 0.000000	 0.000000	 0.000000	 0.000000	 0.000000	 0.000000	 0.000000	 0.000000	 0.000000	 0.000000	 0.000000	 0.000000	 0.000000	 0.000000	 0.000000	 0.000000	 0.000000	 0.000000	 0.000000	 0.000000	 0.000000	 0.000000	 0.000000	 0.000000	 0.000000	 0.000000	 0.000000	 0.000000	 0.000000	 0.000000	 0.000000	 0.000000	 0.000000	 0.000000	 0.000000	 4.748947	-17.498080	 1.335893	 0.443707	 38.751850	-0.727811	 2.010230	-12.852080	 7.119421	 0.000000	 0.000000	 0.000000	 0.312338	-20.498930	 0.103257	 1.970703	 38.837120	-3.224300	-1.485006	-10.306360	-6.216020	 0.000000	 0.000000	 0.000000
-0.002118	 0.911294	 0.009954	-0.954258	 4.341244	-0.932395	 0.546872	-4.511276	-0.104341	 0.560464	 5.828791	 0.012234	 0.000000	 0.000000	 0.000000	-0.519986	-14.245880	-0.062863	-3.351301	 3.705868	-7.624079	 0.000000	 0.000000	 0.000000	 0.000000	 0.000000	 0.000000	 9.275797	-13.470240	 4.747184	-11.382010	 1.361395	-41.943050	-34.582550	-58.983270	-112.524700	 5.253022	 25.880170	-10.434310	 0.000000	 0.000000	 0.000000	 0.000000	 0.000000	 0.000000	 0.000000	 0.000000	 0.000000	 0.000000	 0.000000	 0.000000	 0.000000	 0.000000	 0.000000	 0.000000	 0.000000	 0.000000	 0.000000	 0.000000	 0.000000	 0.000000	 0.000000	 0.000000	 0.000000	 0.000000	 0.000000	 0.000000	 0.000000	 0.000000	 0.000000	 0.000000	 0.000000	 0.000000	 0.000000	 0.000000	 0.000000	 0.000000	 0.000000	 0.000000	 0.000000	 0.000000	 0.000000	 0.000000	 0.000000	-7.963937	-13.510560	-4.473430	 7.895316	 2.825048	 33.553940	 42.658260	-62.634820	 120.095100	-0.631075	 15.563670	 19.462930	 0.000000	 0.000000	 0.000000	 0.000000	 0.000000	 0.000000	 0.000000	 0.000000	 0.000000	 0.000000	 0.000000	 0.000000	 0.000000	 0.000000	 0.000000	 0.000000	 0.000000	 0.000000	 0.000000	 0.000000	 0.000000	 0.000000	 0.000000	 0.000000	 0.000000	 0.000000	 0.000000	 0.000000	 0.000000	 0.000000	 0.000000	 0.000000	 0.000000	 0.000000	 0.000000	 0.000000	 0.000000	 0.000000	 0.000000	 0.000000	 0.000000	 0.000000	 0.000000	 0.000000	 0.000000	 4.762866	-17.499140	 1.339911	 0.426382	 38.349470	-0.705860	 1.899234	-12.605230	 6.829646	 0.000000	 0.000000	 0.000000	 0.092483	-20.178890	 0.030086	 2.741931	 39.144420	-4.452635	-1.564938	-10.545830	-6.438850	 0.000000	 0.000000	 0.000000
-0.001314	 0.911293	 0.011358	-0.920996	 4.363795	-0.667532	 0.607199	-4.503816	-0.081812	 0.613888	 5.836155	 0.027259	 0.000000	 0.000000	 0.000000	-0.653535	-14.296090	-0.095613	-3.443431	 3.337798	-7.891907	 0.000000	 0.000000	 0.000000	 0.000000	 0.000000	 0.000000	 8.938182	-13.479520	 4.595807	-10.578430	 1.557513	-40.184660	-34.585380	-59.630710	-112.001700	 5.889874	 25.911050	-10.431890	 0.000000	 0.000000	 0.000000	 0.000000	 0.000000	 0.000000	 0.000000	 0.000000	 0.000000	 0.000000	 0.000000	 0.000000	 0.000000	 0.000000	 0.000000	 0.000000	 0.000000	 0.000000	 0.000000	 0.000000	 0.000000	 0.000000	 0.000000	 0.000000	 0.000000	 0.000000	 0.000000	 0.000000	 0.000000	 0.000000	 0.000000	 0.000000	 0.000000	 0.000000	 0.000000	 0.000000	 0.000000	 0.000000	 0.000000	 0.000000	 0.000000	 0.000000	 0.000000	 0.000000	 0.000000	-8.278591	-13.504120	-4.428384	 7.614170	 3.048477	 31.851030	 42.767910	-62.396240	 120.937000	-0.556874	 15.958040	 20.652780	 0.000000	 0.000000	 0.000000	 0.000000	 0.000000	 0.000000	 0.000000	 0.000000	 0.000000	 0.000000	 0.000000	 0.000000	 0.000000	 0.000000	 0.000000	 0.000000	 0.000000	 0.000000	 0.000000	 0.000000	 0.000000	 0.000000	 0.000000	 0.000000	 0.000000	 0.000000	 0.000000	 0.000000	 0.000000	 0.000000	 0.000000	 0.000000	 0.000000	 0.000000	 0.000000	 0.000000	 0.000000	 0.000000	 0.000000	 0.000000	 0.000000	 0.000000	 0.000000	 0.000000	 0.000000	 4.750761	-17.551500	 1.340665	 0.457628	 38.025070	-0.763299	 1.751004	-12.298890	 6.419317	 0.000000	 0.000000	 0.000000	-0.151616	-19.862870	-0.048530	 3.693224	 39.732340	-5.914539	-1.650132	-10.828510	-6.655756	 0.000000	 0.000000	 0.000000
